<svg xmlns="http://www.w3.org/2000/svg" viewBox="0 0 680 680">
<defs>
  <linearGradient id="bg" x1="0.2" y1="0" x2="0.8" y2="1">
    <stop offset="0%" stop-color="#7A4E2D"/>
    <stop offset="100%" stop-color="#4A2800"/>
  </linearGradient>
</defs>

<circle cx="340" cy="340" r="330" fill="url(#bg)"/>
<circle cx="455" cy="200" r="120" fill="#C9A07A" opacity="0.22"/>

<!-- 手指（先画，手机压在上面） -->
<rect x="264" y="368" width="26" height="118" rx="13" fill="#FFFFFF"/>
<rect x="296" y="355" width="26" height="132" rx="13" fill="#FFFFFF"/>
<rect x="328" y="350" width="26" height="136" rx="13" fill="#FFFFFF"/>
<rect x="360" y="356" width="26" height="130" rx="13" fill="#FFFFFF"/>

<!-- 掌心 -->
<rect x="244" y="464" width="162" height="66" rx="28" fill="#FFFFFF"/>

<!-- 大拇指 -->
<rect x="212" y="386" width="28" height="84" rx="14" fill="#FFFFFF" transform="rotate(-12,226,428)"/>

<!-- 手腕 -->
<rect x="283" y="528" width="84" height="44" rx="20" fill="#FFFFFF"/>

<!-- 手机机身 -->
<rect x="248" y="106" width="164" height="282" rx="24" fill="#FFFFFF"/>
<!-- 屏幕 -->
<rect x="261" y="121" width="138" height="252" rx="15" fill="#F5EAD8"/>

<!-- 顶部摄像头 -->
<rect x="316" y="129" width="28" height="8" rx="4" fill="#C9A07A"/>
<circle cx="352" cy="133" r="4.5" fill="#C9A07A"/>

<!-- 顶栏 -->
<rect x="261" y="121" width="138" height="34" rx="15" fill="#4A2800"/>
<rect x="261" y="140" width="138" height="15" fill="#4A2800"/>
<text x="330" y="144" text-anchor="middle" font-size="12" fill="#FFFFFF" font-weight="bold" font-family="sans-serif">PAYMENT</text>

<!-- 金额 -->
<text x="318" y="222" text-anchor="end" font-size="18" fill="#9A7A5A" font-family="sans-serif">&#165;</text>
<text x="368" y="226" text-anchor="middle" font-size="40" fill="#2D1500" font-weight="bold" font-family="sans-serif">996</text>

<!-- 分割线 -->
<line x1="278" y1="240" x2="382" y2="240" stroke="#D8E0F5" stroke-width="1"/>

<!-- 二维码 -->
<rect x="282" y="248" width="96" height="96" rx="8" fill="#FFFFFF" stroke="#D8E0F5" stroke-width="1"/>
<rect x="287" y="253" width="20" height="20" rx="2" fill="#2D1500"/>
<rect x="290" y="256" width="14" height="14" rx="1" fill="#FFFFFF"/>
<rect x="292" y="258" width="10" height="10" rx="0.5" fill="#2D1500"/>
<rect x="353" y="253" width="20" height="20" rx="2" fill="#2D1500"/>
<rect x="356" y="256" width="14" height="14" rx="1" fill="#FFFFFF"/>
<rect x="358" y="258" width="10" height="10" rx="0.5" fill="#2D1500"/>
<rect x="287" y="319" width="20" height="20" rx="2" fill="#2D1500"/>
<rect x="290" y="322" width="14" height="14" rx="1" fill="#FFFFFF"/>
<rect x="292" y="324" width="10" height="10" rx="0.5" fill="#2D1500"/>
<rect x="313" y="255" width="5" height="5" fill="#2D1500"/>
<rect x="321" y="261" width="4" height="4" fill="#2D1500"/>
<rect x="330" y="255" width="6" height="5" fill="#2D1500"/>
<rect x="340" y="263" width="5" height="4" fill="#2D1500"/>
<rect x="313" y="270" width="8" height="4" fill="#2D1500"/>
<rect x="325" y="276" width="4" height="6" fill="#2D1500"/>
<rect x="335" y="271" width="6" height="4" fill="#2D1500"/>
<rect x="346" y="278" width="4" height="5" fill="#2D1500"/>
<rect x="313" y="288" width="5" height="5" fill="#2D1500"/>
<rect x="322" y="294" width="8" height="4" fill="#2D1500"/>
<rect x="336" y="289" width="5" height="6" fill="#2D1500"/>
<rect x="347" y="293" width="6" height="4" fill="#2D1500"/>
<rect x="313" y="306" width="6" height="5" fill="#2D1500"/>
<rect x="324" y="310" width="4" height="4" fill="#2D1500"/>
<rect x="333" y="305" width="7" height="4" fill="#2D1500"/>
<rect x="344" y="308" width="5" height="5" fill="#2D1500"/>

<!-- Home 条 -->
<rect x="305" y="368" width="50" height="4" rx="2" fill="#C9A07A"/>
</svg>
