<svg xmlns="http://www.w3.org/2000/svg" viewBox="0 0 48 48" fill="none">
  <!-- 袈裟帽/光头 -->
  <circle cx="24" cy="19" r="11" fill="#F5D6A8" stroke="#C9883D" stroke-width="0.8"/>
  <!-- 光头高光 -->
  <ellipse cx="21" cy="14" rx="3" ry="2" fill="white" opacity="0.25"/>
  <!-- 戒点 (3点) -->
  <circle cx="21" cy="12" r="1" fill="#A06828" opacity="0.7"/>
  <circle cx="24" cy="11.2" r="1" fill="#A06828" opacity="0.7"/>
  <circle cx="27" cy="12" r="1" fill="#A06828" opacity="0.7"/>
  <!-- 眉毛 平静淡然 -->
  <path d="M19 17 Q21 16 23 17" stroke="#6B4226" stroke-width="1.2" fill="none" stroke-linecap="round"/>
  <path d="M25 17 Q27 16 29 17" stroke="#6B4226" stroke-width="1.2" fill="none" stroke-linecap="round"/>
  <!-- 眼睛 微闭佛系 -->
  <path d="M19 19.5 Q21 21 23 19.5" stroke="#3D2010" stroke-width="1.3" fill="none" stroke-linecap="round"/>
  <path d="M25 19.5 Q27 21 29 19.5" stroke="#3D2010" stroke-width="1.3" fill="none" stroke-linecap="round"/>
  <!-- 鼻子 -->
  <path d="M23 21.5 Q24 23 25 21.5" stroke="#C9883D" stroke-width="0.8" fill="none" opacity="0.5"/>
  <!-- 嘴 淡然微笑 -->
  <path d="M21 24.5 Q24 26.5 27 24.5" stroke="#A06828" stroke-width="1.1" fill="none" stroke-linecap="round"/>
  <!-- 耳垂 (大耳有福) -->
  <ellipse cx="13.5" cy="20" rx="2.2" ry="3" fill="#F0C890" stroke="#C9883D" stroke-width="0.6"/>
  <ellipse cx="34.5" cy="20" rx="2.2" ry="3" fill="#F0C890" stroke="#C9883D" stroke-width="0.6"/>
  <!-- 袈裟 橙红色 -->
  <path d="M13 31 Q10 44 10 48 L38 48 Q38 44 35 31 Q30 28 24 28 Q18 28 13 31Z" fill="#C9883D"/>
  <!-- 袈裟褶皱 -->
  <path d="M20 29 Q20 38 18 46" stroke="#B8772A" stroke-width="0.8" fill="none" opacity="0.5"/>
  <path d="M28 29 Q28 38 30 46" stroke="#B8772A" stroke-width="0.8" fill="none" opacity="0.5"/>
  <!-- 合十手 -->
  <ellipse cx="24" cy="36" rx="5" ry="3.5" fill="#F5D6A8" stroke="#C9883D" stroke-width="0.6"/>
  <path d="M21 34 L21 39" stroke="#C9883D" stroke-width="0.5" opacity="0.4"/>
  <path d="M23 33.5 L23 39" stroke="#C9883D" stroke-width="0.5" opacity="0.4"/>
  <path d="M25 33.5 L25 39" stroke="#C9883D" stroke-width="0.5" opacity="0.4"/>
  <path d="M27 34 L27 39" stroke="#C9883D" stroke-width="0.5" opacity="0.4"/>
</svg>
