<svg viewBox="0 0 64 64" xmlns="http://www.w3.org/2000/svg">
  <path d="M22 20 Q16 14 18 10 Q21 12 22 16Z" fill="#4F6EF7"/>
  <path d="M42 20 Q48 14 46 10 Q43 12 42 16Z" fill="#4F6EF7"/>
  <ellipse cx="24" cy="26" rx="4" ry="5" fill="#7B93FF" transform="rotate(-10 24 26)"/>
  <ellipse cx="40" cy="26" rx="4" ry="5" fill="#7B93FF" transform="rotate(10 40 26)"/>
  <ellipse cx="32" cy="28" rx="16" ry="15" fill="#7B93FF"/>
  <ellipse cx="32" cy="35" rx="9" ry="6" fill="#6B80EE"/>
  <ellipse cx="29" cy="27" rx="4" ry="3" fill="#fff"/>
  <ellipse cx="35" cy="27" rx="4" ry="3" fill="#fff"/>
  <circle cx="29" cy="28" r="2" fill="#1a1a2e"/>
  <circle cx="35" cy="28" r="2" fill="#1a1a2e"/>
  <path d="M28 38 Q32 36 36 38" fill="none" stroke="#4F6EF7" stroke-width="1.5" stroke-linecap="round"/>
  <path d="M16 52 Q16 44 32 42 Q48 44 48 52Z" fill="#7B93FF"/>
  <path d="M29 42 L32 41 L35 42 L36 48 L32 51 L28 48Z" fill="#FF4757"/>
  <circle cx="46" cy="22" r="5" fill="#FFE566"/>
  <text x="46" y="25" font-size="6" font-weight="900" text-anchor="middle" fill="#8B6914" font-family="Arial">¥</text>
</svg>
